<?xml version="1.0" encoding="UTF-8" standalone="no"?>
<svg width="24px" height="23px" viewBox="0 0 24 23" version="1.1" xmlns="http://www.w3.org/2000/svg" xmlns:xlink="http://www.w3.org/1999/xlink" xmlns:sketch="http://www.bohemiancoding.com/sketch/ns">
    <!-- Generator: Sketch 3.4.2 (15857) - http://www.bohemiancoding.com/sketch -->
    <title>flag</title>
    <desc>Created with Sketch.</desc>
    <defs></defs>
    <g id="Light-Themes" stroke="none" stroke-width="1" fill="none" fill-rule="evenodd" sketch:type="MSPage">
        <path d="M13.3630285,4.2195122 C11.0953009,4.60485921 8.7027027,4.20849421 7.92042565,4.05508993 C7.83849703,4.01977587 7.74922309,4 7.6542989,4 C7.28788021,4 7,4.29466051 7,4.6610792 L7,20.2721537 C7,20.6363123 7.28901026,20.9309728 7.6542989,20.9309728 C8.02184763,20.9309728 8.3176382,20.6351822 8.3176382,20.2721537 L8.3176382,12.7590169 C9.15952538,13.0392692 10.7486581,13.3893022 12.7638196,12.9951973 C15.501648,12.4578586 17.7476222,13.1508617 17.7476222,13.1508617 C18.4383652,12.4620962 18.9725963,10.7924475 18.7197476,8.94961861 C18.4440154,6.94660514 19,4.84640738 19,4.84640738 C18.1227988,4.28025238 16.1197853,3.75054148 13.3630285,4.2195122 Z" id="Page-1" fill="#B6B6B9" sketch:type="MSShapeGroup"></path>
    </g>
</svg>