<?xml version="1.0" encoding="UTF-8" standalone="no"?>
<svg width="195px" height="32px" viewBox="0 0 195 32" version="1.1" xmlns="http://www.w3.org/2000/svg" xmlns:xlink="http://www.w3.org/1999/xlink">
    <!-- Generator: Sketch 3.8.2 (29753) - http://www.bohemiancoding.com/sketch -->
    <title>img-main-logo</title>
    <desc>Created with Sketch.</desc>
    <defs>
        <path d="M122.526647,23.0173579 C122.521472,25.6738009 124.686394,27.8671597 127.320149,27.8737493 C130.044036,27.8806042 132.223464,25.7403159 132.230938,23.0511019 C132.238456,20.3475147 130.066414,18.1605685 127.376006,18.162824 C124.708728,18.1650795 122.531865,20.3442862 122.526647,23.0173579 L122.526647,23.0173579 Z M126.977555,10.6734292 C126.977555,10.2024286 126.99666,9.76092645 126.97384,9.32163553 C126.91533,8.1951261 126.643697,7.12327926 126.042011,6.15876748 C125.263511,4.91072664 124.12882,4.14735198 122.659696,4.1435486 C112.25253,4.1165711 101.845232,4.12917534 91.4380219,4.12917534 L91.195136,4.12917534 L91.195136,10.6740041 L104.816294,10.6740041 L104.816294,27.5170272 L113.037664,27.5170272 L113.037664,10.6734292 L126.977555,10.6734292 Z M20.7946564,4.12917534 L20.7946564,4.41575595 C20.7946564,10.348682 20.7939046,16.2815639 20.7965139,22.21449 C20.7966908,22.574927 20.8025285,22.937708 20.8418891,23.2954473 C20.9703639,24.4625556 21.441276,25.460944 22.3665598,26.2103435 C23.4454385,27.0840605 24.7205895,27.4380849 26.0751251,27.5099069 C27.0012935,27.5590413 27.9317959,27.5268452 28.8603525,27.5296314 C28.9090004,27.5298083 28.9576484,27.5171156 29.0299127,27.5071649 L29.0299127,12.4372709 C29.1560435,12.5424831 29.2457326,12.6163395 29.3344045,12.6914342 C30.5320284,13.7058765 31.7293427,14.7206726 32.9270551,15.7350706 C37.5153963,19.6210682 42.1032952,23.5076407 46.6959263,27.3885524 C46.7914974,27.469308 46.9420848,27.5245897 47.0671543,27.5248993 C50.0004483,27.5324176 52.9337423,27.5308255 55.8670805,27.5302506 C55.945271,27.5302506 56.0234173,27.5230418 56.1029788,27.5191058 L56.1029788,4.14102775 L47.8888622,4.14102775 L47.8888622,18.594464 C47.7958562,18.5229957 47.7376998,18.4820872 47.6836564,18.4363139 C42.1109462,13.7173309 36.5381476,8.99839207 30.9684889,4.27578255 C30.8409871,4.16769567 30.7170675,4.12607957 30.5531239,4.12630069 C27.3913615,4.13019253 24.2295549,4.12917534 21.0677925,4.12917534 L20.7946564,4.12917534 Z M158.659939,19.4755224 C158.733132,19.408344 158.759092,19.3826491 158.786998,19.3591654 C163.719678,15.2068866 168.652314,11.0546079 173.585481,6.90285986 C174.151964,6.42611003 174.340939,5.79642876 174.108093,5.14454634 C173.876617,4.49659998 173.325966,4.12926379 172.584439,4.12926379 C161.875391,4.12917534 151.166387,4.12917534 140.457338,4.12917534 L140.200787,4.12917534 L140.200787,12.1858937 L154.247393,12.1858937 C154.238416,12.261298 154.196623,12.2868603 154.159562,12.3180392 C151.092442,14.8991221 148.02572,17.480603 144.958909,20.0620397 C143.087246,21.6374369 141.21545,23.2127015 139.343787,24.7880988 C139.020366,25.0603061 138.820114,25.3983651 138.776729,25.8253171 C138.688499,26.6939482 139.344671,27.5453315 140.392769,27.5372382 C142.551897,27.520521 144.711247,27.5444469 146.870508,27.5450661 C148.535904,27.5455084 150.201344,27.5318427 151.86674,27.5314447 C158.780099,27.5297641 165.693502,27.5307371 172.606861,27.5307371 L172.91896,27.5307371 L172.91896,19.4755224 L158.659939,19.4755224 Z M58.4233351,27.535425 L88.8747797,27.535425 L88.8747797,21.012134 L66.6527536,21.012134 L66.6527536,19.1010659 L88.8735413,19.1010659 L88.8735413,12.5478786 L66.6545226,12.5478786 L66.6545226,10.6593213 L88.8704456,10.6593213 L88.8704456,4.1411162 L58.4233351,4.1411162 L58.4233351,27.535425 Z" id="path-1"></path>
        <mask id="mask-2" maskContentUnits="userSpaceOnUse" maskUnits="objectBoundingBox" x="-2.5" y="-2.5" width="158.410888" height="28.7475314">
            <rect x="18.2945559" y="1.62623429" width="158.410888" height="28.7475314" fill="white"></rect>
            <use xlink:href="#path-1" fill="black"></use>
        </mask>
    </defs>
    <g id="Page-1" stroke="none" stroke-width="1" fill="none" fill-rule="evenodd">
        <g id="img-main-logo">
            <g id="Fill-1">
                <use fill-opacity="0" fill="#FFFFFF" fill-rule="evenodd" xlink:href="#path-1"></use>
                <use stroke="#FFFFFF" mask="url(#mask-2)" stroke-width="5" xlink:href="#path-1"></use>
            </g>
        </g>
    </g>
</svg>