<?xml version="1.0" encoding="UTF-8" standalone="no"?>
<svg width="102px" height="30px" viewBox="0 0 102 30" version="1.1" xmlns="http://www.w3.org/2000/svg" xmlns:xlink="http://www.w3.org/1999/xlink">
    <!-- Generator: Sketch 3.8.2 (29753) - http://www.bohemiancoding.com/sketch -->
    <title>img-main-logo-small</title>
    <desc>Created with Sketch.</desc>
    <defs>
        <path d="M63.8793965,19.2903493 C63.8765779,20.7373686 65.0558555,21.9321364 66.4905164,21.9357259 C67.9742737,21.93946 69.161453,20.7736007 69.1655243,19.3087304 C69.1696197,17.8360306 67.9864635,16.6447559 66.5209427,16.6459845 C65.0680212,16.6472131 63.8822391,17.834272 63.8793965,19.2903493 L63.8793965,19.2903493 Z M66.3766924,12.5663922 C66.3766924,12.3098285 66.3870995,12.0693331 66.3746688,11.8300423 C66.3427971,11.2164094 66.1948333,10.6325523 65.8670822,10.1071628 C65.4430173,9.42732918 64.8249276,9.01150324 64.0246657,9.00943146 C58.3556676,8.99473626 52.6865974,9.00160205 47.0175753,9.00160205 L46.8852703,9.00160205 L46.8852703,12.5667054 L54.3049964,12.5667054 L54.3049964,21.7414477 L58.7833461,21.7414477 L58.7833461,12.5663922 L66.3766924,12.5663922 Z M8.00005474,9.00156636 L8.00005474,9.15767273 C8.00005474,12.38946 7.9996452,15.6212233 8.00106654,18.8530106 C8.0011629,19.0493481 8.00434284,19.2469623 8.02578338,19.4418303 C8.09576625,20.0775783 8.35228178,20.6214211 8.856303,21.0296344 C9.44399048,21.5055662 10.1385916,21.6984105 10.8764351,21.7375335 C11.3809381,21.764298 11.887802,21.7467601 12.3936059,21.7482778 C12.4201054,21.7483742 12.446605,21.7414602 12.4859688,21.7360399 L12.4859688,13.5271575 C12.5546749,13.5844688 12.6035304,13.6246999 12.6518318,13.6656055 C13.3042023,14.2181932 13.9564041,14.7709735 14.6088227,15.3235371 C17.1081869,17.4403202 19.6073102,19.5574165 22.1090111,21.6714292 C22.1610707,21.7154184 22.2430988,21.7455315 22.3112267,21.7457001 C23.9090525,21.7497955 25.5068782,21.7489283 27.1047281,21.7486151 C27.1473201,21.7486151 27.189888,21.7446883 27.2332268,21.7425443 L27.2332268,9.00802261 L22.758828,9.00802261 L22.758828,16.8811077 C22.7081657,16.8421774 22.6764867,16.8198937 22.6470481,16.7949601 C19.6114778,14.2244326 16.5758594,11.6539292 13.5419513,9.08142633 C13.4724984,9.02254918 13.4049969,8.99988002 13.3156935,9.00000048 C11.5934162,9.00212044 9.87111485,9.00156636 8.1488376,9.00156636 L8.00005474,9.00156636 Z M84.8657825,17.359472 C84.9056523,17.3228786 84.9197934,17.308882 84.9349945,17.29609 C87.6219272,15.034258 90.3088358,12.7724261 92.9960335,10.5108832 C93.3046086,10.2511877 93.4075473,9.90818735 93.2807108,9.55309354 C93.1546212,9.20014378 92.8546705,9.00004818 92.4507453,9.00004818 C86.6173056,9 80.78389,9 74.9504503,9 L74.8107014,9 L74.8107014,13.3886608 L82.462178,13.3886608 C82.4572877,13.4297351 82.4345221,13.4436594 82.4143343,13.4606432 C80.7436107,14.8666123 79.0731039,16.2727982 77.4025489,17.6789601 C76.3830153,18.5371115 75.3634095,19.3951906 74.3438759,20.253342 C74.1677021,20.401619 74.0586204,20.5857667 74.0349876,20.8183363 C73.9869271,21.2914976 74.3443577,21.7552636 74.9152782,21.750855 C76.0914,21.7417488 77.2676422,21.7547818 78.4438362,21.7551191 C79.3510118,21.75536 80.2582114,21.747916 81.165387,21.7476992 C84.9312364,21.7467837 88.6971098,21.7473137 92.4629592,21.7473137 L92.6329658,21.7473137 L92.6329658,17.359472 L84.8657825,17.359472 Z M28.7654833,21.7586063 L45.3530138,21.7586063 L45.3530138,18.205235 L33.2482175,18.205235 L33.2482175,17.1642368 L45.3523392,17.1642368 L45.3523392,13.5945804 L33.2491811,13.5945804 L33.2491811,12.5658442 L45.3506529,12.5658442 L45.3506529,9.0152434 L28.7654833,9.0152434 L28.7654833,21.7586063 Z" id="path-1"></path>
        <mask id="mask-2" maskContentUnits="userSpaceOnUse" maskUnits="objectBoundingBox" x="-1.5" y="-1.5" width="88.3337402" height="15.9357349">
            <rect x="6.5" y="7.5" width="88.3337402" height="15.9357349" fill="white"></rect>
            <use xlink:href="#path-1" fill="black"></use>
        </mask>
    </defs>
    <g id="Page-1" stroke="none" stroke-width="1" fill="none" fill-rule="evenodd">
        <g id="img-main-logo-small">
            <g id="Fill-1">
                <use fill-opacity="0" fill="#FFFFFF" fill-rule="evenodd" xlink:href="#path-1"></use>
                <use stroke="#000000" mask="url(#mask-2)" stroke-width="3" xlink:href="#path-1"></use>
            </g>
        </g>
    </g>
</svg>