<?xml version="1.0" encoding="UTF-8" standalone="no"?>
<svg width="23px" height="23px" viewBox="0 0 23 23" version="1.1" xmlns="http://www.w3.org/2000/svg" xmlns:xlink="http://www.w3.org/1999/xlink" xmlns:sketch="http://www.bohemiancoding.com/sketch/ns">
    <!-- Generator: Sketch 3.4.2 (15857) - http://www.bohemiancoding.com/sketch -->
    <title>like</title>
    <desc>Created with Sketch.</desc>
    <defs>
        <path id="path-1" d="M0,9.49599102 C0,5.62353389 0,3.09974268e-13 0,3.09974268e-13 L0,2.48428712 C0,1.11225323 0.180890874,3.09974268e-13 0.180890874,3.09974268e-13 L0,3.09974268e-13 C0.0999032713,3.09974268e-13 3.32996118,3.09974268e-13 7.19895203,3.09974268e-13 L7.00273138,3.09974268e-13 C10.8810234,3.09974268e-13 14.0250003,3.14748383 14.0250003,7.01250017 L14.0250003,7.01250017 C14.0250003,10.8853971 10.8775165,14.0250003 7.01250017,14.0250003 L7.01250017,14.0250003 C3.13960327,14.0250003 0,10.8825246 0,7.0047668 L0,9.49599102 Z"></path>
    </defs>
    <g id="Light-Themes" stroke="none" stroke-width="1" fill="none" fill-rule="evenodd" sketch:type="MSPage">
        <g id="Imported-Layers-Copy-7" sketch:type="MSLayerGroup" transform="translate(11.500000, 13.500000) scale(-1, -1) rotate(-135.000000) translate(-11.500000, -13.500000) translate(4.000000, 6.000000)">
            <mask id="mask-2" sketch:name="Mask" fill="white">
                <use xlink:href="#path-1"></use>
            </mask>
            <g id="Mask">
                <use fill="none" sketch:type="MSShapeGroup" xlink:href="#path-1"></use>
                <use fill="none" xlink:href="#path-1"></use>
                <use fill="#B6B6B9" fill-rule="evenodd" xlink:href="#path-1"></use>
            </g>
        </g>
    </g>
</svg>