<?xml version="1.0" encoding="UTF-8" standalone="no"?>
<svg width="24px" height="23px" viewBox="0 0 24 23" version="1.1" xmlns="http://www.w3.org/2000/svg" xmlns:xlink="http://www.w3.org/1999/xlink" xmlns:sketch="http://www.bohemiancoding.com/sketch/ns">
    <!-- Generator: Sketch 3.4.2 (15857) - http://www.bohemiancoding.com/sketch -->
    <title>setting</title>
    <desc>Created with Sketch.</desc>
    <defs></defs>
    <g id="Light-Themes" stroke="none" stroke-width="1" fill="none" fill-rule="evenodd" sketch:type="MSPage">
        <path d="M17.8112782,9.1942986 C17.7222865,8.87345377 17.5796624,8.53599715 17.401679,8.18003026 C17.7398475,7.7175106 18.1311738,7.25499095 18.4695797,6.73860164 C18.5761324,6.59574026 18.5761324,6.43626709 18.4695797,6.27608199 C18.0421821,5.65313992 17.3302483,5.01239951 16.7433775,4.51380855 C16.6007535,4.37094717 16.4049717,4.37094717 16.2447866,4.49624752 L14.7494883,5.59927027 C14.4649521,5.4566462 14.1265462,5.3322951 13.8242117,5.20818131 L13.5396755,3.32084483 C13.5221144,3.12411379 13.3792531,3 13.1661475,3 L10.8523627,3 C10.6392572,3 10.4963958,3.12411379 10.4612738,3.30209724 C10.3184124,3.90747827 10.2479309,4.60185103 10.1765003,5.20628282 C9.85589274,5.31283557 9.53599715,5.43789861 9.25146095,5.61588206 L7.81003233,4.5128593 C7.72104061,4.44142861 7.59668951,4.38874551 7.52525882,4.38874551 C7.16929192,4.38874551 5.78078372,5.93672688 5.51380855,6.27513275 C5.37094717,6.45311619 5.38945745,6.55966895 5.53136958,6.75521343 C5.90489751,7.25404171 6.27866275,7.71656136 6.63462965,8.19664205 C6.47420723,8.53504791 6.34985613,8.80202308 6.24330337,9.15798997 L4.2845362,9.44252618 C4.12411379,9.4788348 4,9.67437928 4,9.85236273 L4,12.1485865 C4,12.32657 4.12411379,12.4869924 4.30209724,12.5221144 L6.18872178,12.8242117 C6.27771351,13.1450565 6.43789861,13.4825131 6.59832102,13.820919 C6.25991516,14.3009997 5.88638723,14.7459583 5.53042034,15.2623476 C5.42386758,15.42277 5.44142861,15.5829551 5.53042034,15.7248673 C5.97537896,16.3478093 6.66975171,16.9883124 7.25662247,17.5047017 C7.41680757,17.6475631 7.59479102,17.6475631 7.75521343,17.5400611 L9.2505117,16.436801 C9.55260894,16.5796624 9.87345377,16.7037762 10.175551,16.810329 L10.4603245,18.7145146 C10.4778856,18.874937 10.638308,19.0351221 10.8514135,19.0351221 L13.1651983,19.0351221 C13.3785411,19.0351221 13.4860431,18.9110083 13.5387262,18.7330248 C13.6991486,18.1276438 13.7705793,17.433271 13.8410608,16.8288393 C14.1616683,16.7222865 14.4815639,16.5796624 14.7846104,16.4377503 L16.2262763,17.5595206 C16.315268,17.630714 16.4218208,17.6485124 16.5108125,17.6485124 C16.8492184,17.6485124 18.2552876,16.0817834 18.5222628,15.7443268 C18.6290528,15.6017027 18.6112545,15.4597906 18.4871407,15.2818071 C18.1136128,14.7654178 17.7398475,14.3028982 17.3838806,13.7865089 C17.544303,13.5019726 17.6686541,13.2174364 17.7937172,12.8614695 L19.6976655,12.576696 C19.8756489,12.559135 20,12.3635905 20,12.2207291 L20,9.86992376 C20,9.70950135 19.8756489,9.5315179 19.6976655,9.4788348 L17.8112782,9.1942986 Z M11.9916941,13.6790069 C10.5315179,13.6790069 9.33950343,12.4869924 9.33950343,11.0268162 C9.33950343,9.5315179 10.5315179,8.33950343 11.9916941,8.33950343 C13.469194,8.33950343 14.6614458,9.5315179 14.6614458,11.0268162 C14.6614458,12.4869924 13.4682448,13.6790069 11.9916941,13.6790069 L11.9916941,13.6790069 Z" id="Page-1" fill="#B6B6B9" sketch:type="MSShapeGroup"></path>
    </g>
</svg>