<?xml version="1.0" encoding="UTF-8" standalone="no"?>
<svg width="23px" height="23px" viewBox="0 0 23 23" version="1.1" xmlns="http://www.w3.org/2000/svg" xmlns:xlink="http://www.w3.org/1999/xlink" xmlns:sketch="http://www.bohemiancoding.com/sketch/ns">
    <!-- Generator: Sketch 3.4.2 (15857) - http://www.bohemiancoding.com/sketch -->
    <title>share</title>
    <desc>Created with Sketch.</desc>
    <defs></defs>
    <g id="Light-Themes" stroke="none" stroke-width="1" fill="none" fill-rule="evenodd" sketch:type="MSPage">
        <g id="Page-1" sketch:type="MSLayerGroup" transform="translate(3.000000, 2.000000)" fill="#B6B6B9">
            <path d="M1.19988174,17.1886148 C0.536591573,17.1876458 0,16.6520233 0,15.9887331 L0,3.51364523 C0,2.85132407 0.536591573,2.3147325 1.19988174,2.3147325 L7.63195527,2.3147325 L5.91728477,4.02843398 L1.71370148,4.02843398 L1.71370148,15.4749134 L12.656778,15.4749134 L12.656778,13.1735048 L14.3704795,11.4598033 L14.3704795,15.9887331 C14.3695105,16.6510543 13.8338879,17.1876458 13.1705978,17.1886148 L1.19988174,17.1886148 Z" id="Fill-1" sketch:type="MSShapeGroup"></path>
            <path d="M12.6000907,2.16332404 L12.6000907,0.011385916 L18.1690149,5.58031011 L12.5753808,11.1739442 L12.5753808,8.93697504 C12.5753808,8.93697504 9.7979441,8.38609051 6.94201721,10.1661695 C5.37875517,11.1342146 4.32374104,12.4079836 3.67353256,13.4109133 C3.67353256,13.4109133 3.88453538,9.93627086 5.88409604,6.77074396 C8.38415248,2.81329027 12.6000907,2.16332404 12.6000907,2.16332404 L12.6000907,2.16332404 Z" id="Fill-2" sketch:type="MSShapeGroup"></path>
        </g>
    </g>
</svg>